<?xml version="1.0" encoding="utf-8"?>
<!-- Generator: Adobe Illustrator 27.9.0, SVG Export Plug-In . SVG Version: 6.00 Build 0)  -->
<svg version="1.1" id="Layer_1" xmlns="http://www.w3.org/2000/svg" xmlns:xlink="http://www.w3.org/1999/xlink" x="0px" y="0px"
	 viewBox="0 0 299.93 256.75" style="enable-background:new 0 0 299.93 256.75;" xml:space="preserve">
<style type="text/css">
	.st0{fill:#FFFFFF;}
</style>
<g>
	<g>
		<path class="st0" d="M231.24,128.72c-0.06,2.49-2.02,5.98-4.13,7.27c-16.51,9.94-33.28,19.44-49.99,29.03
			c-5.98,3.43-8.03,2.23-8.06-4.66c-0.06-18.94-0.15-37.85,0.06-56.79c0.03-4.22-1.29-6.71-5.1-8.74
			c-8.39-4.46-16.51-9.44-25.48-14.6l-0.35-0.47V22.58c0-1.76-0.03-3.52,0-5.25c0.06-7.01,1.94-8.18,7.95-4.72
			c20.23,11.67,40.46,23.37,60.66,35.04c6.74,3.9,13.69,7.51,20.14,11.85c2.14,1.44,4.25,4.72,4.28,7.18
			C231.56,87.35,231.56,108.05,231.24,128.72z"/>
		<g>
			<g>
				<path class="st0" d="M122.13,246.02c-1.55,0-3.1-0.4-4.48-1.21l-44.7-26.32c-2.78-1.64-4.5-4.59-4.5-7.69v-83.45l0.07,0.01
					l0.03-71.96c0-2.85,0.26-5.65,2.18-6.79c1.87-1.11,4.36-0.19,7.54,1.53c10.27,5.6,20.51,11.21,31,16.97l20.64,11.35l0.87,1.07
					l-0.13,2.5c-0.08,1.46-0.15,2.73-0.15,3.98l-0.04,72.37l0.24,79.37c0.01,2.93-1.53,5.57-4.15,7.08
					C125.21,245.62,123.67,246.02,122.13,246.02z M71.39,130.78v80.01c0,2.07,1.17,4.05,3.06,5.17l44.69,26.32
					c1.84,1.07,4.13,1.08,5.97,0.01c1.72-0.99,2.69-2.64,2.68-4.53l-0.24-79.38L127.59,86c0-1.3,0.07-2.62,0.15-4.14l0.07-1.27
					l-19.93-10.92c-10.49-5.75-20.73-11.37-31-16.96c-3.46-1.88-4.39-1.72-4.64-1.59c-0.17,0.11-0.75,0.72-0.75,4.27l-0.03,75.4
					L71.39,130.78z"/>
			</g>
			<g>
				<g>
					<path class="st0" d="M121.04,146.53c-3.3-6.68-5.97-13.61-8.03-20.77c-1.42-4.92-6.22-8.1-11.2-7.4
						c-5.23,0.74-9,5.01-9.01,10.2c-0.01,2.24,0.82,4.29,1.47,6.37c4.79,15.22,11.87,29.29,21.19,42.23
						c3.74,5.2,7.8,10.11,12.11,14.79l-0.02-5.38c-10.24-11.69-18.61-24.64-24.81-39.04c-2.38-5.53-4.41-11.18-6.07-16.96
						c-1.06-3.7,0.95-7.43,4.53-8.46c3.63-1.04,7.29,0.99,8.36,4.69c3.96,13.61,9.96,26.19,17.92,37.79l-0.02-6.29
						c0-0.08,0-0.17,0-0.25C125.15,154.34,123,150.51,121.04,146.53z"/>
				</g>
				<g>
					<path class="st0" d="M124.75,242.23c-15.8-12.35-29.74-26.51-41.4-42.86c-4.28-6-8.17-12.19-11.68-18.57v7.14
						c6,10.11,12.85,19.61,20.57,28.48c8.76,10.06,18.4,19.14,28.76,27.4c1.47-0.01,2.85-0.54,4-1.4
						C124.92,242.36,124.83,242.3,124.75,242.23z"/>
				</g>
				<g>
					<path class="st0" d="M121.14,123.15c-2.46-7.84-9.73-13.39-17.86-13.4c-10.53-0.01-18.84,8.2-18.98,18.75
						c-0.07,0.01-0.15,0.03-0.22,0.04c0.39,1.98,0.63,4.01,1.18,5.94c2.51,8.68,5.8,17.07,9.77,25.18c0.2,0.41,0.49,0.83,0.84,1.11
						c0.58,0.47,1.51,0.39,2.07-0.07c0.67-0.53,0.87-1.36,0.49-2.21c-0.77-1.68-1.58-3.33-2.35-5.01c-3.04-6.71-5.59-13.6-7.6-20.69
						c-2.95-10.44,5.33-20.39,16.13-19.41c6.05,0.55,11.37,4.93,13.09,10.85c2.43,8.38,5.7,16.36,9.79,23.96c0-2.69,0-5.38,0-8.07
						c-0.47-1.02-0.95-2.02-1.39-3.06C124.18,132.53,122.61,127.84,121.14,123.15z"/>
				</g>
				<g>
					<path class="st0" d="M97.79,96.82c11.47-2.06,22.54,2.24,29.71,10.68c0-1.75,0-3.49,0-5.23c-4.38-4.06-9.85-6.93-16.41-8.59
						c-2.58-0.65-5.3-0.79-7.34-1.07c-14.45,0.71-25.08,6.62-32.02,18.66c0,3.34,0,6.68,0,10.02c0.1-0.47,0.18-0.95,0.32-1.41
						C76,107.04,84.64,99.18,97.79,96.82z"/>
				</g>
				<g>
					<path class="st0" d="M71.74,90.64c9.95-8.12,21.43-12.06,34.48-11.24c7.87,0.5,14.96,2.68,21.3,6.35
						c0.02-1.21,0.09-2.48,0.16-3.93c-4.29-2.18-9.02-3.87-14.19-5.08c-3.63-0.85-7.35-1.11-11.09-1.04
						c-11.33,0.29-21.57,3.71-30.66,10.38C71.74,87.6,71.74,89.12,71.74,90.64z"/>
				</g>
				<g>
					<path class="st0" d="M71.66,197.35v6.41c0.94,1.37,1.86,2.75,2.83,4.09c0.71,0.98,1.77,1.22,2.61,0.63
						c0.89-0.62,1.02-1.71,0.29-2.71C75.4,203.02,73.51,200.2,71.66,197.35z"/>
				</g>
				<g>
					<path class="st0" d="M81.18,71.28c-2.06,0.88-4.16,1.69-6.13,2.74c-1.16,0.62-2.21,1.31-3.31,1.97c0,1.35,0,2.71,0,4.06
						c3.19-2.03,6.62-3.82,10.3-5.31c0.41-0.16,0.83-0.37,1.15-0.67c0.59-0.56,0.62-1.51,0.16-2.18
						C82.89,71.21,82.04,70.91,81.18,71.28z"/>
				</g>
				<g>
					<path class="st0" d="M114.47,197.53c-12.37-14.17-22.18-29.92-29.05-47.44c-2.05-5.24-3.7-10.65-5.37-16.03
						c-0.55-1.76-0.59-3.68-0.73-4.68c0.15-6.99,2.19-12.37,6.32-16.92c1.05-1.16,0.95-2.54-0.23-3.11
						c-0.8-0.39-1.57-0.21-2.33,0.61c-2.66,2.86-4.61,6.15-5.85,9.85c-2,5.99-1.77,11.94,0.07,17.95
						c4.07,13.3,9.57,25.95,16.74,37.87c5.48,9.11,11.79,17.61,18.85,25.54c4.65,5.23,9.58,10.14,14.74,14.78l-0.01-4.98
						C123.06,206.71,118.62,202.28,114.47,197.53z"/>
				</g>
				<g>
					<path class="st0" d="M91.8,63.24c1.73-0.31,3.46-0.52,5.18-0.69c-1.71-0.98-3.42-1.97-5.12-2.94
						c-5.2,0.85-10.33,2.28-15.34,4.37c-1.64,0.68-3.22,1.43-4.77,2.21c0,1.33,0,2.66,0,3.99C77.93,66.85,84.61,64.52,91.8,63.24z"
						/>
				</g>
				<g>
					<path class="st0" d="M80.12,54.98c-0.01,1.21,1.1,1.98,2.38,1.67c0.98-0.23,1.96-0.48,2.94-0.73c-1.45-0.83-2.91-1.67-4.36-2.5
						C80.44,53.76,80.12,54.27,80.12,54.98z"/>
				</g>
				<g>
					<path class="st0" d="M72.48,163.35c-0.27-0.64-0.54-1.28-0.82-1.92v4.31C72.53,165.32,72.89,164.34,72.48,163.35z"/>
				</g>
				<g>
					<path class="st0" d="M78.33,96.24c11.86-8.84,24.94-10.77,38.93-5.88c3.74,1.31,7.13,3.21,10.24,5.57c0-1.43,0-2.86,0-4.29
						c-17.73-11.74-41.03-9.16-55.77,5.62c0,1.74,0,3.47,0,5.21C73.66,100.17,75.87,98.08,78.33,96.24z"/>
				</g>
				<g>
					<path class="st0" d="M88.48,69.56c-0.48,0.55-0.4,1.29,0.04,1.91c0.46,0.65,1.12,0.85,1.88,0.71c1.5-0.27,3-0.6,4.51-0.82
						c6-0.86,11.91-0.78,17.73,0.2c-2.53-1.45-5.04-2.9-7.53-4.34c-0.1-0.01-0.21-0.02-0.32-0.02c-0.6-0.03-1.21-0.01-1.82-0.01
						c-4.37,0-8.69,0.46-12.94,1.43C89.47,68.77,88.85,69.12,88.48,69.56z"/>
				</g>
				<g>
					<path class="st0" d="M127.68,227.27l-0.01-4.75c-6.14-5.3-12-10.92-17.47-16.97c-14.82-16.4-26.24-34.88-33.97-55.61
						c-0.86-2.32-1.63-4.68-2.44-7.02c-0.35-0.99-1.13-1.5-2.04-1.36c-0.02,0-0.04,0.02-0.06,0.02v6.15
						c6.39,18.24,15.52,35,27.48,50.24C107.63,208.81,117.2,218.51,127.68,227.27z"/>
				</g>
				<g>
					<path class="st0" d="M72.83,50.95c0.51-0.2,1.02-0.39,1.53-0.57C73.71,50.34,73.22,50.54,72.83,50.95z"/>
				</g>
				<g>
					<path class="st0" d="M72.24,213.05c0.53,1.32,1.4,2.47,2.58,3.32c-0.58-0.74-1.2-1.44-1.77-2.19
						C72.77,213.81,72.52,213.42,72.24,213.05z"/>
				</g>
				<g>
					<path class="st0" d="M127.7,233.65c-15.26-12.26-28.66-26.31-39.75-42.57c-4.33-6.35-8.22-12.95-11.7-19.8
						c-0.6-1.18-1.56-1.61-2.56-1.13c-0.97,0.47-1.23,1.55-0.64,2.72c4.99,9.86,10.84,19.18,17.52,27.98
						c8.11,10.69,17.26,20.4,27.32,29.27c3.15,2.77,6.38,5.43,9.67,8.02c0.05-0.35,0.14-0.69,0.14-1.07L127.7,233.65z"/>
				</g>
				<g>
					<path class="st0" d="M124.64,196.09c-7.18-7.69-13.6-15.98-19.15-24.92c-0.63-1.01-1.29-1.35-2.2-1.13
						c-1.16,0.27-1.7,1.61-1,2.71c1.56,2.45,3.11,4.9,4.77,7.28c6.12,8.78,13.02,16.81,20.56,24.2l-0.02-5.18
						C126.62,198.05,125.6,197.11,124.64,196.09z"/>
				</g>
				<g>
					<path class="st0" d="M107.4,101.6c-1.36-0.27-2.77-0.3-3.49-0.37c-4.81,0.02-8.74,0.88-12.48,2.63
						c-1.17,0.55-1.62,1.54-1.14,2.55c0.45,0.95,1.47,1.22,2.65,0.69c7.08-3.19,14.13-3.14,21.05,0.4c6,3.08,9.98,7.94,11.88,14.42
						c0.5,1.71,1.04,3.39,1.62,5.06c0-3.49,0-6.98,0-10.47C123.55,108.43,116.88,103.44,107.4,101.6z"/>
				</g>
				<g>
					<path class="st0" d="M87.78,218.88c-0.09-0.1-0.17-0.2-0.26-0.3c-0.77-0.84-1.82-0.97-2.6-0.31c-0.76,0.65-0.84,1.77-0.11,2.61
						c1.13,1.31,2.29,2.6,3.44,3.88l12.25,7.58C96.08,228.03,91.82,223.56,87.78,218.88z"/>
				</g>
				<g>
					<path class="st0" d="M117.64,158.9c-0.64-0.45-1.55-0.28-2.1,0.27c-0.6,0.6-0.72,1.46-0.24,2.25c1.11,1.82,2.22,3.65,3.39,5.43
						c2.74,4.2,5.72,8.2,8.85,12.07l-0.02-5.77c-3.22-4.23-6.21-8.62-8.96-13.21C118.32,159.55,118.01,159.16,117.64,158.9z"/>
				</g>
				<g>
					<path class="st0" d="M104.9,128.37c-0.32-1.09-0.89-1.57-1.8-1.57c-0.99,0-1.76,0.75-1.77,1.89c0.04,0.17,0.09,0.48,0.18,0.78
						c2.29,7.83,5.22,15.41,8.81,22.74c0.19,0.39,0.47,0.78,0.81,1.04c0.64,0.49,1.51,0.4,2.12-0.12c0.64-0.55,0.8-1.36,0.4-2.23
						c-0.94-2.06-1.93-4.1-2.84-6.17C108.47,139.39,106.54,133.93,104.9,128.37z"/>
				</g>
			</g>
		</g>
	</g>
</g>
</svg>
