<?xml version="1.0" encoding="utf-8"?>
<!-- Generator: Adobe Illustrator 27.9.0, SVG Export Plug-In . SVG Version: 6.00 Build 0)  -->
<svg version="1.1" id="Layer_1" xmlns="http://www.w3.org/2000/svg" xmlns:xlink="http://www.w3.org/1999/xlink" x="0px" y="0px"
	 viewBox="0 0 595.28 442.23" style="enable-background:new 0 0 595.28 442.23;" xml:space="preserve">
<style type="text/css">
	.st0{fill:#252728;}
	.st1{font-family:'AkzidenzGroteskPro-Ext';}
	.st2{font-size:39.6165px;}
	.st3{letter-spacing:2;}
	.st4{font-family:'AkzidenzGroteskPro-LightEx';}
	.st5{font-size:14.1651px;}
</style>
<rect x="-30.25" y="467.11" width="665.1" height="513.42"/>
<g>
	<g>
		<g>
			<g>
				<text transform="matrix(1 0 0 1 180.1338 234.7303)" class="st0 st1 st2 st3">Profundes</text>
			</g>
			<g>
				<text transform="matrix(1 0 0 1 177.6826 250.6287)" class="st0 st4 st5">L&apos;Innovation dans chaque Détail</text>
			</g>
		</g>
		<g>
			<path class="st0" d="M148.17,221.35c-0.02,1.04-0.84,2.49-1.72,3.02c-6.87,4.13-13.84,8.09-20.79,12.07
				c-2.49,1.43-3.34,0.93-3.35-1.94c-0.02-7.88-0.06-15.75,0.02-23.62c0.01-1.76-0.54-2.79-2.12-3.63
				c-3.49-1.85-6.87-3.93-10.6-6.07l-0.15-0.2V177.2c0-0.73-0.01-1.46,0-2.18c0.02-2.92,0.81-3.4,3.31-1.96
				c8.42,4.85,16.83,9.72,25.23,14.57c2.8,1.62,5.7,3.12,8.38,4.93c0.89,0.6,1.77,1.96,1.78,2.99
				C148.31,204.14,148.31,212.75,148.17,221.35z"/>
			<g>
				<g>
					<path class="st0" d="M102.79,270.14c-0.64,0-1.29-0.17-1.86-0.5l-18.59-10.95c-1.16-0.68-1.87-1.91-1.87-3.2v-34.71l0.03,0
						l0.01-29.93c0-1.19,0.11-2.35,0.91-2.82c0.78-0.46,1.82-0.08,3.14,0.64c4.27,2.33,8.53,4.66,12.9,7.06l8.59,4.72l0.36,0.44
						l-0.05,1.04c-0.03,0.61-0.06,1.14-0.06,1.66l-0.02,30.1l0.1,33.02c0.01,1.22-0.64,2.32-1.72,2.95
						C104.07,269.97,103.43,270.14,102.79,270.14z M81.68,222.21v33.28c0,0.86,0.49,1.69,1.27,2.15l18.59,10.95
						c0.76,0.44,1.72,0.45,2.48,0c0.71-0.41,1.12-1.1,1.12-1.88l-0.1-33.02l0.02-30.11c0-0.54,0.03-1.09,0.06-1.72l0.03-0.53
						l-8.29-4.54c-4.36-2.39-8.62-4.73-12.89-7.05c-1.44-0.78-1.83-0.72-1.93-0.66c-0.07,0.04-0.31,0.3-0.31,1.78l-0.01,31.36
						L81.68,222.21z"/>
				</g>
				<g>
					<g>
						<path class="st0" d="M102.34,228.76c-1.37-2.78-2.48-5.66-3.34-8.64c-0.59-2.04-2.59-3.37-4.66-3.08
							c-2.17,0.31-3.74,2.08-3.75,4.24c0,0.93,0.34,1.78,0.61,2.65c1.99,6.33,4.94,12.18,8.82,17.56c1.56,2.16,3.24,4.21,5.04,6.15
							l-0.01-2.24c-4.26-4.86-7.74-10.25-10.32-16.24c-0.99-2.3-1.83-4.65-2.52-7.06c-0.44-1.54,0.39-3.09,1.88-3.52
							c1.51-0.43,3.03,0.41,3.48,1.95c1.65,5.66,4.14,10.9,7.45,15.72l-0.01-2.62c0-0.04,0-0.07,0-0.11
							C104.05,232.01,103.15,230.41,102.34,228.76z"/>
					</g>
					<g>
						<path class="st0" d="M103.88,268.57c-6.57-5.14-12.37-11.03-17.22-17.83c-1.78-2.49-3.4-5.07-4.86-7.73v2.97
							c2.49,4.21,5.35,8.16,8.56,11.85c3.64,4.19,7.65,7.96,11.96,11.4c0.61,0,1.19-0.22,1.67-0.58
							C103.95,268.62,103.91,268.59,103.88,268.57z"/>
					</g>
					<g>
						<path class="st0" d="M102.38,219.03c-1.02-3.26-4.05-5.57-7.43-5.57c-4.38,0-7.84,3.41-7.9,7.8
							c-0.03,0.01-0.06,0.01-0.09,0.02c0.16,0.83,0.26,1.67,0.49,2.47c1.05,3.61,2.41,7.1,4.06,10.47c0.08,0.17,0.2,0.34,0.35,0.46
							c0.24,0.19,0.63,0.16,0.86-0.03c0.28-0.22,0.36-0.57,0.2-0.92c-0.32-0.7-0.66-1.39-0.98-2.09c-1.27-2.79-2.33-5.66-3.16-8.61
							c-1.23-4.34,2.22-8.48,6.71-8.08c2.52,0.23,4.73,2.05,5.44,4.51c1.01,3.49,2.37,6.81,4.07,9.97c0-1.12,0-2.24,0-3.36
							c-0.19-0.42-0.4-0.84-0.58-1.27C103.64,222.94,102.99,220.98,102.38,219.03z"/>
					</g>
					<g>
						<path class="st0" d="M92.66,208.08c4.77-0.86,9.37,0.93,12.36,4.44c0-0.73,0-1.45,0-2.18c-1.82-1.69-4.1-2.88-6.82-3.57
							c-1.07-0.27-2.21-0.33-3.05-0.45c-6.01,0.3-10.43,2.76-13.32,7.76c0,1.39,0,2.78,0,4.17c0.04-0.2,0.07-0.4,0.13-0.59
							C83.6,212.33,87.19,209.06,92.66,208.08z"/>
					</g>
					<g>
						<path class="st0" d="M81.83,205.51c4.14-3.38,8.92-5.02,14.34-4.68c3.27,0.21,6.22,1.12,8.86,2.64
							c0.01-0.5,0.04-1.03,0.07-1.64c-1.79-0.91-3.75-1.61-5.9-2.11c-1.51-0.35-3.06-0.46-4.61-0.43
							c-4.71,0.12-8.97,1.54-12.75,4.32C81.83,204.25,81.83,204.88,81.83,205.51z"/>
					</g>
					<g>
						<path class="st0" d="M81.8,249.9v2.66c0.39,0.57,0.77,1.14,1.18,1.7c0.29,0.41,0.73,0.51,1.09,0.26
							c0.37-0.26,0.42-0.71,0.12-1.13C83.35,252.25,82.56,251.08,81.8,249.9z"/>
					</g>
					<g>
						<path class="st0" d="M85.76,197.46c-0.86,0.36-1.73,0.7-2.55,1.14c-0.48,0.26-0.92,0.55-1.38,0.82c0,0.56,0,1.13,0,1.69
							c1.33-0.85,2.75-1.59,4.29-2.21c0.17-0.07,0.35-0.15,0.48-0.28c0.24-0.23,0.26-0.63,0.07-0.91
							C86.46,197.43,86.11,197.3,85.76,197.46z"/>
					</g>
					<g>
						<path class="st0" d="M99.6,249.97c-5.15-5.89-9.23-12.45-12.08-19.74c-0.85-2.18-1.54-4.43-2.23-6.67
							c-0.23-0.73-0.24-1.53-0.31-1.95c0.06-2.91,0.91-5.14,2.63-7.04c0.44-0.48,0.4-1.06-0.09-1.29c-0.33-0.16-0.65-0.09-0.97,0.25
							c-1.1,1.19-1.92,2.56-2.43,4.1c-0.83,2.49-0.73,4.97,0.03,7.47c1.69,5.53,3.98,10.79,6.96,15.75
							c2.28,3.79,4.9,7.32,7.84,10.63c1.94,2.17,3.99,4.22,6.13,6.15l-0.01-2.07C103.17,253.79,101.33,251.95,99.6,249.97z"/>
					</g>
					<g>
						<path class="st0" d="M90.17,194.11c0.72-0.13,1.44-0.22,2.16-0.29c-0.71-0.41-1.42-0.82-2.13-1.22
							c-2.16,0.35-4.29,0.95-6.38,1.82c-0.68,0.28-1.34,0.6-1.98,0.92c0,0.55,0,1.11,0,1.66C84.4,195.62,87.18,194.64,90.17,194.11z
							"/>
					</g>
					<g>
						<path class="st0" d="M85.31,190.68c0,0.5,0.46,0.82,0.99,0.7c0.41-0.1,0.82-0.2,1.22-0.3c-0.6-0.35-1.21-0.69-1.81-1.04
							C85.45,190.17,85.32,190.38,85.31,190.68z"/>
					</g>
					<g>
						<path class="st0" d="M82.14,235.76c-0.11-0.27-0.23-0.53-0.34-0.8v1.79C82.16,236.57,82.31,236.17,82.14,235.76z"/>
					</g>
					<g>
						<path class="st0" d="M84.57,207.84c4.93-3.68,10.38-4.48,16.19-2.44c1.55,0.54,2.97,1.34,4.26,2.32c0-0.6,0-1.19,0-1.79
							c-7.37-4.88-17.07-3.81-23.2,2.34c0,0.72,0,1.44,0,2.17C82.63,209.47,83.55,208.6,84.57,207.84z"/>
					</g>
					<g>
						<path class="st0" d="M88.79,196.74c-0.2,0.23-0.16,0.54,0.02,0.8c0.19,0.27,0.46,0.35,0.78,0.3c0.63-0.11,1.25-0.25,1.88-0.34
							c2.49-0.36,4.95-0.33,7.38,0.09c-1.05-0.61-2.09-1.21-3.13-1.8c-0.04,0-0.09-0.01-0.13-0.01c-0.25-0.01-0.5,0-0.76,0
							c-1.82,0-3.61,0.19-5.38,0.59C89.2,196.41,88.95,196.56,88.79,196.74z"/>
					</g>
					<g>
						<path class="st0" d="M105.1,262.34l-0.01-1.98c-2.56-2.2-4.99-4.54-7.27-7.06c-6.17-6.82-10.92-14.51-14.13-23.13
							c-0.36-0.97-0.68-1.95-1.02-2.92c-0.14-0.41-0.47-0.63-0.85-0.56c-0.01,0-0.02,0.01-0.03,0.01v2.56
							c2.66,7.59,6.46,14.56,11.43,20.9C96.76,254.66,100.74,258.7,105.1,262.34z"/>
					</g>
					<g>
						<path class="st0" d="M82.28,189c0.21-0.08,0.42-0.16,0.64-0.24C82.65,188.75,82.44,188.83,82.28,189z"/>
					</g>
					<g>
						<path class="st0" d="M82.04,256.43c0.22,0.55,0.58,1.03,1.07,1.38c-0.24-0.31-0.5-0.6-0.74-0.91
							C82.26,256.74,82.15,256.58,82.04,256.43z"/>
					</g>
					<g>
						<path class="st0" d="M105.1,265c-6.35-5.1-11.92-10.94-16.53-17.71c-1.8-2.64-3.42-5.39-4.87-8.24
							c-0.25-0.49-0.65-0.67-1.06-0.47c-0.4,0.2-0.51,0.64-0.27,1.13c2.08,4.1,4.51,7.98,7.29,11.64
							c3.37,4.44,7.18,8.48,11.36,12.17c1.31,1.15,2.65,2.26,4.02,3.34c0.02-0.15,0.06-0.29,0.06-0.44L105.1,265z"/>
					</g>
					<g>
						<path class="st0" d="M103.83,249.37c-2.99-3.2-5.66-6.65-7.97-10.37c-0.26-0.42-0.54-0.56-0.92-0.47
							c-0.48,0.11-0.71,0.67-0.42,1.13c0.65,1.02,1.29,2.04,1.98,3.03c2.55,3.65,5.42,6.99,8.55,10.07l-0.01-2.15
							C104.66,250.19,104.23,249.8,103.83,249.37z"/>
					</g>
					<g>
						<path class="st0" d="M96.66,210.07c-0.57-0.11-1.15-0.12-1.45-0.15c-2,0.01-3.64,0.37-5.19,1.09
							c-0.49,0.23-0.67,0.64-0.47,1.06c0.19,0.4,0.61,0.51,1.1,0.29c2.94-1.33,5.88-1.31,8.75,0.17c2.5,1.28,4.15,3.3,4.94,6
							c0.21,0.71,0.43,1.41,0.67,2.11c0-1.45,0-2.9,0-4.36C103.38,212.91,100.6,210.83,96.66,210.07z"/>
					</g>
					<g>
						<path class="st0" d="M88.5,258.85c-0.04-0.04-0.07-0.08-0.11-0.13c-0.32-0.35-0.76-0.4-1.08-0.13
							c-0.32,0.27-0.35,0.73-0.05,1.09c0.47,0.54,0.95,1.08,1.43,1.62l5.09,3.15C91.95,262.66,90.18,260.8,88.5,258.85z"/>
					</g>
					<g>
						<path class="st0" d="M100.92,233.9c-0.26-0.19-0.64-0.12-0.88,0.11c-0.25,0.25-0.3,0.61-0.1,0.94
							c0.46,0.76,0.92,1.52,1.41,2.26c1.14,1.75,2.38,3.41,3.68,5.02l-0.01-2.4c-1.34-1.76-2.59-3.59-3.73-5.5
							C101.21,234.18,101.08,234.01,100.92,233.9z"/>
					</g>
					<g>
						<path class="st0" d="M95.62,221.2c-0.13-0.45-0.37-0.65-0.75-0.65c-0.41,0-0.73,0.31-0.74,0.79c0.02,0.07,0.04,0.2,0.08,0.32
							c0.95,3.26,2.17,6.41,3.67,9.46c0.08,0.16,0.2,0.32,0.34,0.43c0.26,0.2,0.63,0.16,0.88-0.05c0.27-0.23,0.33-0.57,0.16-0.93
							c-0.39-0.86-0.8-1.71-1.18-2.57C97.11,225.79,96.3,223.52,95.62,221.2z"/>
					</g>
				</g>
			</g>
		</g>
	</g>
</g>
</svg>
