<?xml version="1.0" encoding="utf-8"?>
<!-- Generator: Adobe Illustrator 27.9.0, SVG Export Plug-In . SVG Version: 6.00 Build 0)  -->
<svg version="1.1" id="Layer_1" xmlns="http://www.w3.org/2000/svg" xmlns:xlink="http://www.w3.org/1999/xlink" x="0px" y="0px"
	 viewBox="0 0 595.28 442.23" style="enable-background:new 0 0 595.28 442.23;" xml:space="preserve">
<style type="text/css">
	.st0{fill:#FFFFFF;}
	.st1{font-family:'AkzidenzGroteskPro-Ext';}
	.st2{font-size:48.2163px;}
	.st3{letter-spacing:2;}
	.st4{font-family:'AkzidenzGroteskPro-LightEx';}
	.st5{font-size:17.24px;}
</style>
<g>
	<g>
		<g>
			<text transform="matrix(1 0 0 1 157.5669 237.5721)" class="st0 st1 st2 st3">Profundes</text>
		</g>
		<g>
			<text transform="matrix(1 0 0 1 154.5908 256.9178)" class="st0 st4 st5">L&apos;Innovation dans chaque Détail</text>
		</g>
	</g>
	<g>
		<path class="st0" d="M118.67,221.29c-0.03,1.26-1.02,3.03-2.09,3.68c-8.36,5.03-16.85,9.84-25.31,14.7
			c-3.03,1.74-4.07,1.13-4.08-2.36c-0.03-9.59-0.07-19.16,0.03-28.75c0.02-2.14-0.65-3.4-2.58-4.42c-4.25-2.26-8.36-4.78-12.9-7.39
			l-0.18-0.24v-28.95c0-0.89-0.02-1.78,0-2.66c0.03-3.55,0.98-4.14,4.02-2.39c10.24,5.91,20.48,11.83,30.71,17.74
			c3.41,1.97,6.93,3.8,10.2,6c1.08,0.73,2.15,2.39,2.17,3.64C118.83,200.34,118.83,210.82,118.67,221.29z"/>
		<g>
			<g>
				<path class="st0" d="M63.44,280.67c-0.78,0-1.57-0.2-2.27-0.61l-22.63-13.32c-1.41-0.83-2.28-2.32-2.28-3.89v-42.25l0.04,0.01
					l0.01-36.43c0-1.44,0.13-2.86,1.1-3.44c0.95-0.56,2.21-0.1,3.82,0.78c5.2,2.83,10.38,5.68,15.7,8.59l10.45,5.75l0.44,0.54
					l-0.06,1.26c-0.04,0.74-0.07,1.38-0.07,2.02l-0.02,36.64l0.12,40.18c0.01,1.48-0.78,2.82-2.1,3.58
					C64.99,280.47,64.21,280.67,63.44,280.67z M37.75,222.33v40.51c0,1.05,0.59,2.05,1.55,2.62l22.63,13.32
					c0.93,0.54,2.09,0.55,3.02,0c0.87-0.5,1.36-1.34,1.36-2.29l-0.12-40.19l0.02-36.64c0-0.66,0.03-1.33,0.08-2.1l0.03-0.64
					l-10.09-5.53c-5.31-2.91-10.5-5.75-15.69-8.59c-1.75-0.95-2.22-0.87-2.35-0.8c-0.09,0.05-0.38,0.37-0.38,2.16l-0.01,38.17
					L37.75,222.33z"/>
			</g>
			<g>
				<g>
					<path class="st0" d="M62.88,230.3c-1.67-3.38-3.02-6.89-4.07-10.51c-0.72-2.49-3.15-4.1-5.67-3.75
						c-2.65,0.37-4.56,2.54-4.56,5.16c0,1.13,0.41,2.17,0.75,3.22c2.42,7.7,6.01,14.83,10.73,21.38c1.9,2.63,3.95,5.12,6.13,7.49
						l-0.01-2.72c-5.18-5.92-9.42-12.47-12.56-19.76c-1.2-2.8-2.23-5.66-3.07-8.59c-0.54-1.88,0.48-3.76,2.29-4.28
						c1.84-0.53,3.69,0.5,4.23,2.37c2,6.89,5.04,13.26,9.07,19.13l-0.01-3.18c0-0.04,0-0.09,0-0.13
						C64.96,234.26,63.88,232.32,62.88,230.3z"/>
				</g>
				<g>
					<path class="st0" d="M64.76,278.75c-8-6.25-15.06-13.42-20.96-21.7c-2.17-3.04-4.14-6.17-5.91-9.4v3.61
						c3.04,5.12,6.51,9.93,10.42,14.42c4.43,5.09,9.31,9.69,14.56,13.87c0.74,0,1.44-0.27,2.03-0.71
						C64.84,278.82,64.8,278.79,64.76,278.75z"/>
				</g>
				<g>
					<path class="st0" d="M62.93,218.46c-1.25-3.97-4.93-6.78-9.04-6.78c-5.33,0-9.54,4.15-9.61,9.49
						c-0.04,0.01-0.08,0.01-0.11,0.02c0.2,1,0.32,2.03,0.6,3.01c1.27,4.39,2.94,8.64,4.95,12.75c0.1,0.21,0.25,0.42,0.43,0.56
						c0.29,0.24,0.76,0.19,1.05-0.03c0.34-0.27,0.44-0.69,0.25-1.12c-0.39-0.85-0.8-1.69-1.19-2.54c-1.54-3.4-2.83-6.89-3.85-10.47
						c-1.5-5.29,2.7-10.32,8.16-9.83c3.06,0.28,5.76,2.49,6.63,5.49c1.23,4.24,2.89,8.28,4.95,12.13c0-1.36,0-2.73,0-4.09
						c-0.24-0.52-0.48-1.02-0.7-1.55C64.47,223.22,63.68,220.84,62.93,218.46z"/>
				</g>
				<g>
					<path class="st0" d="M51.11,205.14c5.81-1.04,11.41,1.13,15.04,5.41c0-0.88,0-1.77,0-2.65c-2.22-2.06-4.99-3.51-8.31-4.35
						c-1.31-0.33-2.68-0.4-3.71-0.54c-7.31,0.36-12.7,3.35-16.21,9.45c0,1.69,0,3.38,0,5.07c0.05-0.24,0.09-0.48,0.16-0.71
						C40.08,210.31,44.45,206.33,51.11,205.14z"/>
				</g>
				<g>
					<path class="st0" d="M37.93,202.01c5.04-4.11,10.85-6.11,17.46-5.69c3.98,0.25,7.57,1.36,10.78,3.22
						c0.01-0.61,0.04-1.25,0.08-1.99c-2.17-1.1-4.57-1.96-7.19-2.57c-1.84-0.43-3.72-0.56-5.61-0.53
						c-5.73,0.15-10.92,1.88-15.52,5.26C37.93,200.47,37.93,201.24,37.93,202.01z"/>
				</g>
				<g>
					<path class="st0" d="M37.88,256.03v3.24c0.48,0.69,0.94,1.39,1.43,2.07c0.36,0.5,0.89,0.62,1.32,0.32
						c0.45-0.31,0.52-0.86,0.15-1.37C39.78,258.9,38.82,257.47,37.88,256.03z"/>
				</g>
				<g>
					<path class="st0" d="M42.71,192.21c-1.04,0.44-2.11,0.86-3.1,1.39c-0.59,0.31-1.12,0.66-1.67,1c0,0.69,0,1.37,0,2.06
						c1.62-1.03,3.35-1.93,5.22-2.69c0.21-0.08,0.42-0.19,0.58-0.34c0.3-0.28,0.31-0.77,0.08-1.11
						C43.57,192.17,43.14,192.02,42.71,192.21z"/>
				</g>
				<g>
					<path class="st0" d="M59.56,256.12c-6.26-7.17-11.23-15.15-14.71-24.02c-1.04-2.65-1.87-5.39-2.72-8.12
						c-0.28-0.89-0.3-1.86-0.37-2.37c0.08-3.54,1.11-6.26,3.2-8.56c0.53-0.59,0.48-1.29-0.12-1.58c-0.41-0.2-0.79-0.11-1.18,0.31
						c-1.34,1.45-2.34,3.11-2.96,4.99c-1.01,3.03-0.89,6.05,0.04,9.09c2.06,6.73,4.84,13.14,8.48,19.17
						c2.78,4.61,5.97,8.91,9.55,12.93c2.36,2.65,4.85,5.13,7.46,7.48l-0.01-2.52C63.9,260.77,61.66,258.53,59.56,256.12z"/>
				</g>
				<g>
					<path class="st0" d="M48.08,188.14c0.88-0.16,1.75-0.26,2.62-0.35c-0.86-0.5-1.73-1-2.59-1.49c-2.63,0.43-5.23,1.16-7.77,2.21
						c-0.83,0.34-1.63,0.73-2.42,1.12c0,0.67,0,1.35,0,2.02C41.06,189.97,44.44,188.78,48.08,188.14z"/>
				</g>
				<g>
					<path class="st0" d="M42.17,183.95c-0.01,0.61,0.55,1,1.21,0.85c0.5-0.12,0.99-0.24,1.49-0.37c-0.74-0.42-1.47-0.85-2.21-1.27
						C42.33,183.34,42.17,183.59,42.17,183.95z"/>
				</g>
				<g>
					<path class="st0" d="M38.3,238.82c-0.13-0.33-0.27-0.65-0.41-0.97v2.18C38.33,239.82,38.51,239.32,38.3,238.82z"/>
				</g>
				<g>
					<path class="st0" d="M41.26,204.84c6.01-4.48,12.63-5.45,19.71-2.98c1.89,0.66,3.61,1.63,5.18,2.82c0-0.72,0-1.45,0-2.17
						c-8.97-5.94-20.77-4.64-28.23,2.84c0,0.88,0,1.76,0,2.64C38.9,206.83,40.01,205.77,41.26,204.84z"/>
				</g>
				<g>
					<path class="st0" d="M46.4,191.34c-0.24,0.28-0.2,0.65,0.02,0.97c0.23,0.33,0.56,0.43,0.95,0.36c0.76-0.14,1.52-0.3,2.28-0.41
						c3.04-0.44,6.03-0.4,8.98,0.1c-1.28-0.74-2.55-1.47-3.81-2.2c-0.05,0-0.11-0.01-0.16-0.01c-0.31-0.02-0.61,0-0.92,0
						c-2.21,0-4.4,0.23-6.55,0.72C46.9,190.93,46.59,191.12,46.4,191.34z"/>
				</g>
				<g>
					<path class="st0" d="M66.24,271.18l-0.01-2.41c-3.11-2.68-6.08-5.53-8.85-8.59c-7.51-8.3-13.29-17.66-17.2-28.15
						c-0.44-1.17-0.82-2.37-1.24-3.55c-0.17-0.5-0.57-0.76-1.03-0.69c-0.01,0-0.02,0.01-0.03,0.01v3.12
						c3.23,9.23,7.86,17.72,13.91,25.44C56.09,261.83,60.94,266.75,66.24,271.18z"/>
				</g>
				<g>
					<path class="st0" d="M38.48,181.91c0.26-0.1,0.52-0.2,0.78-0.29C38.92,181.61,38.67,181.71,38.48,181.91z"/>
				</g>
				<g>
					<path class="st0" d="M38.18,263.98c0.27,0.67,0.71,1.25,1.31,1.68c-0.29-0.38-0.61-0.73-0.9-1.11
						C38.44,264.36,38.32,264.17,38.18,263.98z"/>
				</g>
				<g>
					<path class="st0" d="M66.25,274.41c-7.72-6.21-14.51-13.32-20.12-21.55c-2.19-3.21-4.16-6.56-5.92-10.02
						c-0.31-0.6-0.79-0.82-1.29-0.57c-0.49,0.24-0.62,0.78-0.32,1.38c2.53,4.99,5.49,9.71,8.87,14.17
						c4.11,5.41,8.74,10.33,13.83,14.82c1.59,1.4,3.23,2.75,4.9,4.06c0.03-0.18,0.07-0.35,0.07-0.54L66.25,274.41z"/>
				</g>
				<g>
					<path class="st0" d="M64.71,255.39c-3.64-3.89-6.88-8.09-9.7-12.62c-0.32-0.51-0.65-0.68-1.11-0.57
						c-0.59,0.14-0.86,0.82-0.51,1.37c0.79,1.24,1.57,2.48,2.41,3.68c3.1,4.45,6.59,8.51,10.41,12.25l-0.01-2.62
						C65.71,256.39,65.19,255.91,64.71,255.39z"/>
				</g>
				<g>
					<path class="st0" d="M55.98,207.56c-0.69-0.13-1.4-0.15-1.76-0.19c-2.43,0.01-4.42,0.45-6.32,1.33
						c-0.59,0.28-0.82,0.78-0.58,1.29c0.23,0.48,0.75,0.62,1.34,0.35c3.58-1.61,7.15-1.59,10.65,0.2c3.04,1.56,5.05,4.02,6.01,7.3
						c0.25,0.86,0.53,1.72,0.82,2.56c0-1.77,0-3.53,0-5.3C64.16,211.02,60.78,208.49,55.98,207.56z"/>
				</g>
				<g>
					<path class="st0" d="M46.04,266.93c-0.04-0.05-0.09-0.1-0.13-0.15c-0.39-0.43-0.92-0.49-1.32-0.16
						c-0.39,0.33-0.43,0.89-0.06,1.32c0.57,0.66,1.16,1.31,1.74,1.97l6.2,3.84C50.25,271.56,48.09,269.3,46.04,266.93z"/>
				</g>
				<g>
					<path class="st0" d="M61.16,236.56c-0.32-0.23-0.78-0.14-1.07,0.14c-0.3,0.3-0.37,0.74-0.12,1.14
						c0.56,0.92,1.12,1.85,1.71,2.75c1.39,2.13,2.89,4.15,4.48,6.11l-0.01-2.92c-1.63-2.14-3.15-4.36-4.53-6.69
						C61.51,236.9,61.35,236.7,61.16,236.56z"/>
				</g>
				<g>
					<path class="st0" d="M54.71,221.11c-0.16-0.55-0.45-0.8-0.91-0.8c-0.5,0-0.89,0.38-0.9,0.96c0.02,0.08,0.05,0.24,0.09,0.39
						c1.16,3.96,2.64,7.8,4.46,11.51c0.1,0.2,0.24,0.39,0.41,0.53c0.32,0.25,0.76,0.2,1.07-0.06c0.32-0.28,0.4-0.69,0.2-1.13
						c-0.48-1.04-0.98-2.08-1.44-3.13C56.52,226.69,55.54,223.93,54.71,221.11z"/>
				</g>
			</g>
		</g>
	</g>
</g>
</svg>
